<svg width="446" height="390" viewBox="0 0 446 390" fill="none" xmlns="http://www.w3.org/2000/svg">
<path d="M93.1993 0L225.424 43.4736L352.598 0C352.598 0 397.338 168.513 352.598 259.399C321.179 323.223 225.424 389.82 225.424 389.82C225.424 389.82 125.739 324.219 93.1993 259.399C47.7508 168.865 93.1993 0 93.1993 0Z" fill="#F93D3C"/>
<path d="M195.664 148.33L128.56 167.09C128.56 167.09 142.51 120.929 164.818 122.715C180.426 123.964 195.664 148.33 195.664 148.33Z" fill="#762424"/>
<path d="M249.42 148.149L316.525 166.91C316.525 166.91 302.574 120.748 280.266 122.534C264.658 123.784 249.42 148.149 249.42 148.149Z" fill="#762424"/>
<path d="M312.736 208.349C254.547 220.968 210.05 263.803 149.845 251.101C149.845 251.101 187.05 305.114 222.001 304.315C255.615 303.547 312.736 208.349 312.736 208.349Z" fill="#762424"/>
<path d="M352.59 259.519C397.263 168.591 352.59 0 352.59 0L225.609 43.4938V390C225.609 390 321.219 323.373 352.59 259.519Z" fill="#5993A9"/>
<path d="M248.94 148.149L316.21 166.91C316.21 166.91 290.29 113.662 267.928 115.448C252.281 116.698 248.94 148.149 248.94 148.149Z" fill="#3B6976"/>
<path d="M297.371 297.075C297.371 297.075 282.394 219.713 225.613 242.081V303.414C248.36 294.96 271.085 291.543 297.371 297.075Z" fill="#3B6976"/>
</svg>
